<?xml version="1.0" standalone="no"?>
<!DOCTYPE svg PUBLIC "-//W3C//DTD SVG 20010904//EN"
 "http://www.w3.org/TR/2001/REC-SVG-20010904/DTD/svg10.dtd">
<svg version="1.0" xmlns="http://www.w3.org/2000/svg"
 width="1182.000000pt" height="1182.000000pt" viewBox="0 0 1182.000000 1182.000000"
 preserveAspectRatio="xMidYMid meet">
<metadata>
Created by potrace 1.11, written by Peter Selinger 2001-2013
</metadata>
<g transform="translate(0.000000,1182.000000) scale(0.100000,-0.100000)"
fill="#000000" stroke="none">
<path d="M5685 10104 c-851 -71 -1626 -496 -2129 -1169 -258 -345 -439 -744
-521 -1150 -52 -258 -57 -326 -62 -1013 l-5 -642 88 5 c994 65 1806 268 2542
635 298 149 492 268 715 438 l98 75 117 -48 c660 -272 1354 -429 2137 -485 77
-5 150 -10 163 -10 l22 0 0 233 c0 372 -22 633 -71 852 -250 1106 -1117 1968
-2229 2215 -201 45 -347 61 -585 64 -126 2 -252 2 -280 0z"/>
<path d="M4489 6087 c-75 -39 -122 -95 -145 -174 -42 -143 40 -303 179 -349
73 -24 181 -15 240 19 198 116 191 399 -12 504 -53 28 -74 33 -131 33 -57 0
-78 -5 -131 -33z"/>
<path d="M7069 6087 c-203 -105 -210 -388 -12 -504 59 -34 167 -43 240 -19
139 46 221 206 179 349 -23 79 -70 135 -145 174 -53 28 -74 33 -131 33 -57 0
-78 -5 -131 -33z"/>
<path d="M8786 4473 c-139 -726 -612 -1424 -1251 -1847 -401 -266 -829 -420
-1325 -477 -122 -14 -478 -14 -600 0 -411 47 -758 156 -1105 344 -744 405
-1281 1119 -1465 1947 -12 52 -23 96 -24 98 -2 2 -43 -41 -91 -94 -195 -219
-325 -474 -386 -761 -33 -153 -38 -438 -10 -602 108 -633 584 -1153 1201
-1311 201 -51 136 -50 2207 -50 2074 0 1995 -2 2198 51 608 156 1071 649 1198
1274 19 94 22 141 21 315 0 229 -15 324 -79 516 -79 238 -249 505 -418 656
-23 21 -44 38 -47 38 -3 0 -13 -44 -24 -97z"/>
<path d="M4854 3851 c11 -95 43 -198 96 -306 134 -277 376 -474 672 -550 436
-110 887 71 1130 455 70 110 132 282 144 399 l7 61 -1028 0 -1028 0 7 -59z"/>
</g>
</svg>
